<svg width="202" height="73" viewBox="0 0 202 73" fill="none" xmlns="http://www.w3.org/2000/svg">
<path d="M202 0H0V73H202V0Z" fill="white"/>
<path fill-rule="evenodd" clip-rule="evenodd" d="M39.1003 21.5296L44.4544 8L45.2504 22.9038L49.8804 16.4651L45.6119 28.0413L52.1236 23.7716L48.0718 29.3436L66.7377 26.0148L51.8339 35.3478L58.2007 36.6501L49.8086 37.7357L55.8857 43.2347H52.9196L63.4374 56.1633L46.0533 46.267L49.5041 54.2749L42.6674 46.8532C42.6674 46.8532 43.4486 54.0148 43.4486 54.406C43.4486 54.796 40.5839 49.2617 40.5839 49.2617L34.5285 63V47.2432L30.2303 52.7775L34.3985 44.1835L25.6733 50.174L31.7938 41.97L12 46.267L28.1468 38.193L18.2505 35.5006H30.2303L21.9625 29.794L29.0591 30.7052L19.1822 17.674L32.2568 25.5655L30.0684 19.2294L36.8298 27.2932V16.5792L39.1003 21.5296Z" fill="#F5799B"/>
<path fill-rule="evenodd" clip-rule="evenodd" d="M39.1415 23.6346L43.6883 12.144L44.3645 24.8024L48.2966 19.3331L44.6713 29.1644L50.2022 25.5391L46.7605 30.2706L62.6142 27.4447L49.9559 35.3704L55.3636 36.4766L48.235 37.398L53.3976 42.0691H50.8773L59.8112 53.0499L45.0454 44.6441L47.9762 51.4465L42.1704 45.1424C42.1704 45.1424 42.8341 51.2253 42.8341 51.5572C42.8341 51.889 40.4005 47.1883 40.4005 47.1883L35.2585 58.8557V45.4743L31.6081 50.1739L35.1468 42.8742L27.7376 47.9626L32.9355 40.9948L16.125 44.6441L29.8382 37.7869L21.4335 35.5004H31.6081L24.5856 30.6538L30.6125 31.4281L22.2238 20.3594L33.329 27.0615L31.4701 21.6811L37.2131 28.5292V19.43L39.1415 23.6346Z" fill="#645573"/>
<path fill-rule="evenodd" clip-rule="evenodd" d="M39.1814 25.6954L42.9379 16.2017L43.4967 26.6602L46.7456 22.142L43.7498 30.265L48.3194 27.2703L45.4764 31.1796L58.5749 28.8441L48.1164 35.3933L52.5844 36.3068L46.6955 37.0686L50.9594 40.9277H48.8782L56.2588 50.0006L44.06 43.0556L46.4811 48.6755L41.6834 43.4673C41.6834 43.4673 42.232 48.493 42.232 48.7667C42.232 49.0415 40.2215 45.1574 40.2215 45.1574L35.9723 54.7983V43.741L32.956 47.6252L35.8811 41.5936L29.7583 45.7971L34.0531 40.0404L20.1631 43.0556L31.494 37.3902L24.549 35.5005H32.956L27.1537 31.4955L32.1338 32.1352L25.2025 22.9904L34.3781 28.5282L32.842 24.0818L37.5871 29.7404V22.2218L39.1814 25.6954Z" fill="#46EBDC"/>
<path fill-rule="evenodd" clip-rule="evenodd" d="M39.2289 28.2169L42.0206 21.1636L42.4346 28.9331L44.8488 25.5758L42.6239 31.6119L46.0188 29.3858L43.9057 32.2904L53.6378 30.5547L45.8671 35.4208L49.1868 36.0993L44.8111 36.6661L47.9791 39.5319H46.4328L51.9169 46.2727L42.8531 41.1136L44.6526 45.2886L41.0878 41.4192C41.0878 41.4192 41.496 45.1529 41.496 45.3559C41.496 45.56 40.0021 42.6748 40.0021 42.6748L36.8455 49.8376V41.6222L34.6046 44.5074L36.7771 40.0268L32.228 43.1503L35.4189 38.8727L25.1006 41.1136L33.519 36.9044L28.3587 35.5006H34.6046L30.2939 32.5253L33.9934 33.0008L28.8445 26.2064L35.6606 30.3209L34.5202 27.0172L38.0452 31.2218V25.6362L39.2289 28.2169Z" fill="white"/>
<path d="M94.0802 37.658C96.0295 38.9047 97.0042 40.6953 97.0042 43.03C97.0042 45.0927 96.2675 46.77 94.7942 48.062C93.3208 49.354 91.4962 50 89.3202 50H79.3242V26.2H88.6402C90.7708 26.2 92.5502 26.8347 93.9782 28.104C95.4288 29.3507 96.1542 30.9827 96.1542 33C96.1542 34.904 95.4628 36.4567 94.0802 37.658ZM88.6402 31.3H84.7642V35.516H88.6402C89.2522 35.516 89.7508 35.3233 90.1362 34.938C90.5215 34.53 90.7142 34.02 90.7142 33.408C90.7142 32.796 90.5215 32.2973 90.1362 31.912C89.7508 31.504 89.2522 31.3 88.6402 31.3ZM89.3202 44.9C90.0002 44.9 90.5442 44.696 90.9522 44.288C91.3602 43.8573 91.5642 43.302 91.5642 42.622C91.5642 41.942 91.3602 41.398 90.9522 40.99C90.5442 40.5593 90.0002 40.344 89.3202 40.344H84.7642V44.9H89.3202ZM114.841 50L113.651 46.26H104.811L103.621 50H97.6709L105.763 26.2H112.699L120.791 50H114.841ZM106.443 41.16H112.019L109.231 32.422L106.443 41.16ZM136.08 26.2H141.52V50H137.44L128.26 37.08V50H122.82V26.2H126.9L136.08 39.12V26.2ZM169.16 36.74V38.78C169.16 42.3387 168.049 45.1833 165.828 47.314C163.629 49.422 160.83 50.476 157.43 50.476C153.735 50.476 150.664 49.286 148.216 46.906C145.79 44.526 144.578 41.602 144.578 38.134C144.578 34.666 145.779 31.7307 148.182 29.328C150.607 26.9253 153.565 25.724 157.056 25.724C159.277 25.724 161.306 26.2227 163.142 27.22C165 28.2173 166.44 29.532 167.46 31.164L162.836 33.816C162.314 33 161.532 32.3313 160.49 31.81C159.47 31.2887 158.314 31.028 157.022 31.028C155.004 31.028 153.327 31.6967 151.99 33.034C150.675 34.3713 150.018 36.0827 150.018 38.168C150.018 40.2307 150.698 41.9193 152.058 43.234C153.418 44.526 155.231 45.172 157.498 45.172C160.648 45.172 162.677 43.948 163.584 41.5H157.226V36.74H169.16ZM172.907 41.5L171.887 33V26.2H178.007V33L176.987 41.5H172.907ZM177.225 49.524C176.59 50.1587 175.831 50.476 174.947 50.476C174.063 50.476 173.303 50.1587 172.669 49.524C172.034 48.8893 171.717 48.13 171.717 47.246C171.717 46.362 172.034 45.6027 172.669 44.968C173.303 44.3333 174.063 44.016 174.947 44.016C175.831 44.016 176.59 44.3333 177.225 44.968C177.859 45.6027 178.177 46.362 178.177 47.246C178.177 48.13 177.859 48.8893 177.225 49.524Z" fill="#FB2D65"/>
</svg>
