<svg width="29" height="26" viewBox="0 0 29 26" fill="none" xmlns="http://www.w3.org/2000/svg">
<g clip-path="url(#clip0_2417_814)">
<path fill-rule="evenodd" clip-rule="evenodd" d="M17.0312 2.17343H25.9996C26.5607 2.17343 26.8179 2.42844 26.8179 2.98543V23.0145C26.8179 23.5713 26.5607 23.8265 25.9996 23.8265H17.0312V23.8239L14.0379 23.8235C13.5563 23.8197 13.3774 23.8183 13.1012 24.0444C12.3541 24.6563 12.5259 26.0038 13.9689 25.9917L16.1236 25.9913V25.9919H26.2723C27.7548 25.9919 29 24.6567 29 23.4205V2.57943C29 1.86157 28.5511 1.17959 28.1851 0.816584C27.8284 0.462593 27.1116 0.00805664 26.4087 0.00805664H16.1236V0.00909677H14.0379C13.5563 0.00510961 13.3774 0.00372277 13.1012 0.229778C12.3541 0.84172 12.5259 2.18921 13.9689 2.17707L17.0312 2.17673V2.17343ZM12.5799 7.45139C12.5799 8.12921 12.7626 8.23218 13.2775 8.85678L15.7167 11.9172L1.37103 11.9163C0.889546 11.9123 0.710474 11.9109 0.434267 12.137C-0.312768 12.7489 -0.141034 14.0964 1.30202 14.0843L15.7167 14.0826C15.2341 14.7977 12.5799 17.7244 12.5799 18.2779C12.5799 19.5044 13.8005 19.969 14.6739 18.9346L17.9146 14.9102C18.0291 14.7711 18.1017 14.6777 18.2184 14.535C18.3268 14.4022 18.4629 14.2511 18.5521 14.1219C19.4401 12.838 18.5948 11.922 17.9456 11.1265L14.7041 7.10278C13.6966 5.85878 12.5799 6.80062 12.5799 7.45139Z" fill="black"/>
</g>
<defs>
<clipPath id="clip0_2417_814">
<rect width="29" height="26" fill="white"/>
</clipPath>
</defs>
</svg>
